{"asset":{"version":"2.0","generator":"THREE.GLTFExporter"},"scenes":[{"nodes":[0],"name":"AuxScene"}],"scene":0,"nodes":[{"mesh":0}],"bufferViews":[{"buffer":0,"byteOffset":0,"byteLength":5436,"target":34962,"byteStride":12},{"buffer":0,"byteOffset":5436,"byteLength":5436,"target":34962,"byteStride":12}],"buffers":[{"byteLength":10872,"uri":"data:application/octet-stream;base64,"}],"accessors":[{"bufferView":0,"componentType":5126,"count":453,"max":[14.758709907531738,4.599999904632568,6.700005054473877],"min":[-13.341291427612305,-0.800000011920929,-112.80000305175781],"type":"VEC3"},{"bufferView":1,"componentType":5126,"count":453,"max":[0.8241640329360962,1,0.7071120738983154],"min":[-0.942810595035553,0.23569676280021667,-0.7768095135688782],"type":"VEC3"}],"materials":[{"pbrMetallicRoughness":{"baseColorFactor":[0.5019607843137255,0.5019607843137255,0.5019607843137255,1],"metallicFactor":0,"roughnessFactor":1}}],"meshes":[{"primitives":[{"mode":4,"attributes":{"POSITION":0,"NORMAL":1},"material":0}]}]}